# Blender 4.5.3 LTS
# www.blender.org
mtllib ChalkBoard.mtl
o Cube
v -2.759705 -1.692847 0.059357
v -2.759705 1.688009 0.059357
v -2.759705 -1.688009 -0.059357
v -2.759705 1.688009 -0.059357
v 2.759705 -1.692847 0.059357
v 2.759705 1.688009 0.059357
v 2.759705 -1.688009 -0.059357
v 2.759705 1.688009 -0.059357
v -2.647333 -1.595833 0.059357
v -2.647333 1.595833 0.059357
v 2.647333 1.595833 0.059357
v 2.647333 -1.595833 0.059357
v -2.593756 -1.563537 0.034274
v -2.593756 1.563537 0.034274
v 2.593756 1.563537 0.034274
v 2.593756 -1.563537 0.034274
v -2.759705 -1.718109 -0.059357
v -2.759705 -1.718109 0.059357
v 2.759705 -1.718109 -0.059357
v 2.759705 -1.718109 0.059357
v -2.759705 -1.692847 0.213621
v 2.759705 -1.692847 0.213621
v -2.759705 -1.718109 0.213621
v 2.759705 -1.718109 0.213621
v -2.759705 -1.733230 0.091635
v -2.759705 -1.733230 0.181343
v -2.759705 -1.707968 0.181343
v -2.759705 -1.707968 0.091635
v 2.759705 -1.733230 0.091635
v 2.759705 -1.733230 0.181343
v 2.759705 -1.707968 0.091635
v 2.759705 -1.707968 0.181343
v 2.390003 -1.695135 0.112159
v 2.521254 -1.695135 0.112159
v 2.390003 -1.708659 0.119967
v 2.521254 -1.708659 0.119967
v 2.390003 -1.708659 0.135582
v 2.521254 -1.708659 0.135582
v 2.390003 -1.695135 0.143390
v 2.521254 -1.695135 0.143390
v 2.390003 -1.681612 0.135582
v 2.521254 -1.681612 0.135582
v 2.390003 -1.681612 0.119967
v 2.521254 -1.681612 0.119967
v 2.390003 -1.695135 0.112159
v 2.390003 -1.708659 0.119967
v 2.521254 -1.708659 0.119967
v 2.521254 -1.695135 0.112159
v 2.390003 -1.708659 0.135582
v 2.521254 -1.708659 0.135582
v 2.390003 -1.695135 0.143390
v 2.521254 -1.695135 0.143390
v 2.390003 -1.681612 0.135582
v 2.521254 -1.681612 0.135582
v 2.390003 -1.681612 0.119967
v 2.521254 -1.681612 0.119967
v 2.115666 -1.695135 0.098659
v 2.301765 -1.695135 0.141768
v 2.113904 -1.708659 0.106266
v 2.300004 -1.708659 0.149374
v 2.110380 -1.708659 0.121479
v 2.296479 -1.708659 0.164587
v 2.108618 -1.695135 0.129085
v 2.294718 -1.695135 0.172193
v 2.110380 -1.681612 0.121479
v 2.296479 -1.681612 0.164587
v 2.113904 -1.681612 0.106266
v 2.300003 -1.681612 0.149374
v 2.115666 -1.695135 0.098659
v 2.113904 -1.708659 0.106266
v 2.300004 -1.708659 0.149374
v 2.301765 -1.695135 0.141768
v 2.110380 -1.708659 0.121479
v 2.296479 -1.708659 0.164587
v 2.108618 -1.695135 0.129085
v 2.294718 -1.695135 0.172193
v 2.110380 -1.681612 0.121479
v 2.296479 -1.681612 0.164587
v 2.113904 -1.681612 0.106266
v 2.300003 -1.681612 0.149374
vn -1.0000 -0.0000 -0.0000
vn -0.0000 -0.0000 -1.0000
vn 1.0000 -0.0000 -0.0000
vn -0.0000 -0.0000 1.0000
vn -0.0000 1.0000 -0.0000
vn -0.4240 -0.0000 0.9057
vn -0.0000 0.6134 0.7898
vn 0.4240 -0.0000 0.9057
vn -0.0000 -0.6134 0.7898
vn -0.0000 -1.0000 -0.0000
vn -0.0000 -0.9056 0.4242
vn -0.0000 0.9056 -0.4242
vn -0.0000 0.9056 0.4242
vn -0.0000 -0.9056 -0.4242
vn -0.0000 -0.8660 -0.5000
vn -0.0000 -0.8660 0.5000
vn -0.0000 0.8660 0.5000
vn -0.0000 0.8660 -0.5000
vn 0.2257 -0.0000 -0.9742
vn 0.1128 -0.8660 -0.4871
vn -0.1128 -0.8660 0.4871
vn -0.2257 -0.0000 0.9742
vn -0.1128 0.8660 0.4871
vn 0.9742 -0.0000 0.2257
vn 0.1128 0.8660 -0.4871
vn -0.9742 -0.0000 -0.2257
vt 0.925066 0.856783
vt 0.495378 0.856784
vt 0.495378 0.841696
vt 0.924451 0.841696
vt 0.187377 0.969469
vt 0.187377 0.570312
vt 0.839954 0.570312
vt 0.839954 0.969469
vt 0.102828 0.841696
vt 0.531902 0.841696
vt 0.531902 0.856783
vt 0.102213 0.856783
vt 0.099003 0.892757
vt 0.739990 0.892757
vt 0.726951 0.903713
vt 0.112365 0.903717
vt 0.928276 0.841696
vt 0.928276 0.856783
vt 0.099003 0.878971
vt 0.739990 0.878971
vt 0.114543 0.871065
vt 0.520187 0.871065
vt 0.516083 0.878584
vt 0.118647 0.878583
vt 0.912736 0.871065
vt 0.507093 0.871065
vt 0.099003 0.765096
vt 0.702575 0.765096
vt 0.690287 0.775705
vt 0.111289 0.775703
vt 0.994552 0.004416
vt 0.994552 0.557891
vt 0.076390 0.557891
vt 0.076390 0.004417
vt 0.684572 0.785584
vt 0.124394 0.785706
vt 0.908631 0.878583
vt 0.511197 0.878584
vt 0.720886 0.914199
vt 0.126276 0.914335
vt 0.187467 0.980858
vt 0.840044 0.980858
vt 0.840044 0.994894
vt 0.187467 0.994894
vt 0.099003 0.856783
vt 0.099003 0.841696
vt 0.032706 1.528415
vt 0.009595 1.528658
vt 0.023211 1.486251
vt 0.046322 1.486008
vt 0.047358 -0.409136
vt 0.024248 -0.408893
vt 0.047683 1.492058
vt 0.047683 -0.422677
vt 0.071032 -0.422929
vt 0.071032 1.491806
vt 0.010198 -0.451009
vt 0.033308 -0.451252
vt 0.024331 -0.424195
vt 0.024331 1.490541
vt 0.000981 1.490793
vt 0.000981 -0.423943
vt 0.071032 -0.424485
vt 0.071032 1.490251
vt 0.047683 1.490503
vt 0.047683 -0.424233
vt 0.023211 -0.610871
vt 0.046321 -0.611115
vt 0.032705 -0.568708
vt 0.009595 -0.568464
vt 0.000982 1.492348
vt 0.000981 -0.422387
vt 0.024331 -0.422639
vt 0.024331 1.492097
vt 0.047358 1.687986
vt 0.024248 1.688229
vt 0.010198 1.646113
vt 0.033308 1.645870
vt 0.979908 0.697282
vt 0.896382 0.697282
vt 0.896382 0.687344
vt 0.979908 0.687344
vt 0.896382 0.677407
vt 0.979908 0.677407
vt 0.896382 0.667469
vt 0.979908 0.667469
vt 0.896382 0.657532
vt 0.979908 0.657532
vt 0.953071 0.592101
vt 0.944464 0.597070
vt 0.935858 0.592101
vt 0.935858 0.582163
vt 0.944464 0.577194
vt 0.953071 0.582163
vt 0.979908 0.717157
vt 0.896382 0.717157
vt 0.896382 0.707220
vt 0.979908 0.707220
vt 0.974159 0.592101
vt 0.974159 0.582163
vt 0.982765 0.577194
vt 0.991372 0.582163
vt 0.991372 0.592101
vt 0.982765 0.597069
vt 0.946221 0.575023
vt 0.946220 0.696590
vt 0.936283 0.696590
vt 0.936283 0.575023
vt 0.926345 0.696590
vt 0.926346 0.575023
vt 0.916408 0.696590
vt 0.916408 0.575023
vt 0.906470 0.696590
vt 0.906471 0.575023
vt 0.925314 0.597070
vt 0.916708 0.592101
vt 0.916708 0.582163
vt 0.925314 0.577194
vt 0.933920 0.582163
vt 0.933920 0.592101
vt 0.966096 0.575023
vt 0.966096 0.696590
vt 0.956158 0.696590
vt 0.956158 0.575023
vt 0.972221 0.592101
vt 0.963615 0.597070
vt 0.955009 0.592101
vt 0.955009 0.582163
vt 0.963615 0.577194
vt 0.972221 0.582163
s 0
usemtl Material.001
f 1/1/1 2/2/1 4/3/1 3/4/1
f 3/5/2 4/6/2 8/7/2 7/8/2
f 7/9/3 8/10/3 6/11/3 5/12/3
f 6/13/4 2/14/4 10/15/4 11/16/4
f 1/1/1 3/4/1 17/17/1 18/18/1
f 8/19/5 4/20/5 2/14/5 6/13/5
f 12/21/6 11/22/6 15/23/6 16/24/6
f 5/12/4 6/11/4 11/22/4 12/21/4
f 2/2/4 1/1/4 9/25/4 10/26/4
f 1/27/4 5/28/4 12/29/4 9/30/4
f 16/31/4 15/32/4 14/33/4 13/34/4
f 9/30/7 12/29/7 16/35/7 13/36/7
f 10/26/8 9/25/8 13/37/8 14/38/8
f 11/16/9 10/15/9 14/39/9 15/40/9
f 17/41/10 19/42/10 20/43/10 18/44/10
f 7/9/3 5/12/3 20/45/3 19/46/3
f 27/47/1 26/48/1 23/49/1 21/50/1
f 3/5/2 7/8/2 19/42/2 17/41/2
f 22/51/4 21/50/4 23/49/4 24/52/4
f 26/53/11 30/54/11 24/55/11 23/56/11
f 30/57/3 32/58/3 22/51/3 24/52/3
f 32/59/12 27/60/12 21/61/12 22/62/12
f 5/63/13 1/64/13 28/65/13 31/66/13
f 31/66/5 28/65/5 27/60/5 32/59/5
f 20/67/3 5/68/3 31/69/3 29/70/3
f 29/70/3 31/69/3 32/58/3 30/57/3
f 18/71/14 20/72/14 29/73/14 25/74/14
f 25/74/10 29/73/10 30/54/10 26/53/10
f 1/75/1 18/76/1 25/77/1 28/78/1
f 28/78/1 25/77/1 26/48/1 27/47/1
s 1
f 45/79/2 48/80/2 47/81/15 46/82/15
f 46/82/15 47/81/15 50/83/16 49/84/16
f 49/84/16 50/83/16 52/85/4 51/86/4
f 51/86/4 52/85/4 54/87/17 53/88/17
f 36/89/3 34/90/3 56/91/3 42/92/3 40/93/3 38/94/3
f 53/95/17 54/96/17 44/97/18 55/98/18
f 55/98/18 44/97/18 48/80/2 45/79/2
f 33/99/1 35/100/1 37/101/1 39/102/1 41/103/1 43/104/1
f 69/105/19 72/106/19 71/107/20 70/108/20
f 70/108/20 71/107/20 74/109/21 73/110/21
f 73/110/21 74/109/21 76/111/22 75/112/22
f 75/112/22 76/111/22 78/113/23 77/114/23
f 60/115/24 58/116/24 80/117/24 66/118/24 64/119/24 62/120/24
f 77/121/23 78/122/23 68/123/25 79/124/25
f 79/124/25 68/123/25 72/106/19 69/105/19
f 57/125/26 59/126/26 61/127/26 63/128/26 65/129/26 67/130/26
